# xmcd
#
# Track frame offsets:
#	150
#	14525
#	28780
#	41365
#	53730
#	68510
#	79562
#	92490
#	105920
#	119797
#	135205
#	149195
#	165360
#	180495
#	194160
#	209490
#	221727
#	236887
#	254002
#	265970
#	277447
#	292270
#	306247
#	319832
#
# Disc length: 4460 seconds
#
# Revision: 0
# Processed by: cddbd v1.5.2PL0 Copyright (c) Steve Scherf et al.
# Submitted via: EasyCDDAExtractor 16.0.6.1
#
DISCID=79116a18
DTITLE=Καζαντζίδης Στέλιος - Ο Στέλιος τραγουδάει στο γλέντι της ζωής μας
DYEAR=1993
DGENRE=Λαϊκή
TTITLE0=Καζαντζίδης Στέλιος - Δεν θα ξαναγαπήσω [Μ. Λοϊζου-Λ. Παπαδόπουλου]
TTITLE1=Καζαντζίδης Στέλιος-Μαρινέλλα - Πάρε τα χνάρια μου [Θ. Δερβενιώτη-Κ. Β
TTITLE1=ίρβου]
TTITLE2=Καζαντζίδης Στέλιος - Όταν μεθάει ο άνθρωπος [Μ. Μπακάλη-Δ. Γκούτη]
TTITLE3=Καζαντζίδης Στέλιος - Αλλοτινές μου εποχές [Α. Καλδάρα-Π. Μανέλη]
TTITLE4=Καζαντζίδης Στέλιος - Εγώ με την αξία μου [Σ. Καζαντζίδη-Χ. Κολοκοτρών
TTITLE4=η]
TTITLE5=Καζαντζίδης Στέλιος-Μαρινέλλα - Αν είναι η αγάπη έγκλημα [Α. Καλδάρα-Ε
TTITLE5=Παπαγιαννοπούλου]
TTITLE6=Καζαντζίδης Στέλιος - Το αγριολούλουδο [Χ. Νικολόπουλου-Σ. Καζαντζίδη-
TTITLE6=Πυθαγόρα]
TTITLE7=Καζαντζίδης Στέλιος - Γυρίζω απ' τη νύχτα [Χ. Νικολόπουλου-Σ. Καζαντζί
TTITLE7=δη-Πυθαγόρα]
TTITLE8=Καζαντζίδης Στέλιος - Ας είχα την υγειά μου [Σ. Καζαντζίδη]
TTITLE9=Καζαντζίδης Στέλιος - Κι αν γελάω είναι ψέμα [Σ. Καζαντζίδη-Ε. Ατραΐδη
TTITLE9=]
TTITLE10=Καζαντζίδης Στέλιος - Νιώθω μιά κούραση βαρειά [Σ. Καζαντζίδη-Ι. Βασι
TTITLE10=λόπουλου]
TTITLE11=Καζαντζίδης Στέλιος-Μαρινέλλα - Είμαι ένα κορμί χαμένο [Α. Καλδάρα-Κ.
TTITLE11=Βίρβου]
TTITLE12=Καζαντζίδης Στέλιος - Τώρα που φεύγω απ' τη ζωή (Το τελευταίο βράδυ μ
TTITLE12=ου)[Σ. Καζαντζίδη]
TTITLE13=Καζαντζίδης Στέλιος - Η στεναχώρια μου [Σ. Καζαντζίδη-Σ. Βαρτάνη]
TTITLE14=Καζαντζίδης Στέλιος - Θα το πω φανερά [Σ. Καζαντζίδη-Χ. Κολοκοτρώνη]
TTITLE15=Καζαντζίδης Στέλιος - Με ξυπνάς χαράματα [Μ. Μπακάλη-Α. Παπουτσή]
TTITLE16=Καζαντζίδης Στέλιος - Καθένας με τον πόνο του [Θ. Δερβενιώτη-Χ. Κολοκ
TTITLE16=οτρώνη]
TTITLE17=Καζαντζίδης Στέλιος - Καταστροφές και συμφορές [Θ. Δερβενιώτη-Χ. Κολο
TTITLE17=κοτρώνη]
TTITLE18=Καζαντζίδης Στέλιος - Στο τραπέζι που τα πίνω [Α. Καλδάρα-Ε. Παπαγιαν
TTITLE18=νοπούλου]
TTITLE19=Καζαντζίδης Στέλιος-Μαρινέλλα - Την καλύβα τη δική μου [Γ. Μητσάκη]
TTITLE20=Καζαντζίδης Στέλιος - Νόμιζα πως ήταν φίλοι [Χ. Κολοκοτρώνη]
TTITLE21=Καζαντζίδης Στέλιος - Έξω απ' άδικο [Χ. Κολοκοτρώνη]
TTITLE22=Καζαντζίδης Στέλιος - Ανεμώνα [Α. Καλδάρα-Ε. Παπαγιαννοπούλου]
TTITLE23=Καζαντζίδης Στέλιος - Η καρδιά μου ας όψεται [Χ. Νικολόπουλου-Πυθαγόρ
TTITLE23=α-Ι. Βασιλόπουλου]
EXTD=
EXTT0=
EXTT1=
EXTT2=
EXTT3=
EXTT4=
EXTT5=
EXTT6=
EXTT7=
EXTT8=
EXTT9=
EXTT10=
EXTT11=
EXTT12=
EXTT13=
EXTT14=
EXTT15=
EXTT16=
EXTT17=
EXTT18=
EXTT19=
EXTT20=
EXTT21=
EXTT22=
EXTT23=
PLAYORDER=
